<svg width="550" height="550" viewBox="0 0 550 550" fill="none" xmlns="http://www.w3.org/2000/svg">
<g clip-path="url(#clip0_8_354)">
<rect width="550" height="550" fill="#F5F7FB"/>
<path fill-rule="evenodd" clip-rule="evenodd" d="M-5.55191 436.906C35.9614 433.775 82.2425 422.279 112.306 451.109C145.581 483.02 155.282 534.703 142.701 579.081C130.767 621.18 93.7448 652.092 51.8208 664.476C16.5281 674.902 -15.4332 650.605 -49.1007 635.738C-85.3375 619.737 -133.641 614.993 -145.741 577.239C-158.358 537.868 -132.269 496.588 -103.064 467.353C-77.7328 441.995 -41.2727 439.6 -5.55191 436.906Z" fill="#DEEBF8"/>
<svg width="194" height="197" viewBox="0 0 194 197" fill="none" xmlns="http://www.w3.org/2000/svg">
<path fill-rule="evenodd" clip-rule="evenodd" d="M99.4095 81.3947C71.1213 50.8507 33.3179 21.7816 37.1727 -19.6933C41.4394 -65.599 75.854 -105.359 118.419 -123.133C158.797 -139.994 206.035 -130.256 241.822 -105.149C271.947 -84.0141 272.823 -43.8756 282.141 -8.27104C292.17 30.0508 318.521 70.8106 296.501 103.779C273.539 138.159 224.991 143.432 183.931 138.768C148.318 134.723 123.751 107.677 99.4095 81.3947Z" fill="#FFFAD1"/>
</svg>
</g>
<defs>
<clipPath id="clip0_8_354">
<rect width="550" height="550" fill="white"/>
</clipPath>
</defs>
</svg>


